<?xml version="1.0" encoding="UTF-8" standalone="no"?>
<!-- Uploaded to: SVG Repo, www.svgrepo.com, Generator: SVG Repo Mixer Tools -->

<svg
   fill="#000000"
   height="800px"
   width="800px"
   version="1.1"
   id="Layer_1"
   viewBox="0 0 492.308 492.308"
   xml:space="preserve"
   sodipodi:docname="GMP-favicon2.svg"
   inkscape:version="1.3.2 (091e20e, 2023-11-25, custom)"
   xmlns:inkscape="http://www.inkscape.org/namespaces/inkscape"
   xmlns:sodipodi="http://sodipodi.sourceforge.net/DTD/sodipodi-0.dtd"
   xmlns="http://www.w3.org/2000/svg"
   xmlns:svg="http://www.w3.org/2000/svg"><defs
   id="defs2" /><sodipodi:namedview
   id="namedview2"
   pagecolor="#ffffff"
   bordercolor="#666666"
   borderopacity="1.0"
   inkscape:showpageshadow="2"
   inkscape:pageopacity="0.0"
   inkscape:pagecheckerboard="0"
   inkscape:deskcolor="#d1d1d1"
   showgrid="false"
   showguides="false"
   inkscape:zoom="0.65318989"
   inkscape:cx="407.23227"
   inkscape:cy="375.84783"
   inkscape:window-width="1920"
   inkscape:window-height="974"
   inkscape:window-x="-11"
   inkscape:window-y="-11"
   inkscape:window-maximized="1"
   inkscape:current-layer="Layer_1" />
<ellipse
   style="fill:#241c1c;fill-opacity:1;stroke:#241c1c;stroke-width:0.49944;stroke-dasharray:none;stroke-opacity:1"
   id="path19"
   ry="10.86469"
   rx="118.26668"
   cy="481.89578"
   cx="130.48398" /><g
   id="g2"
   transform="matrix(1.0761395,0,0,0.99999797,-18.742045,0)"
   style="fill:#ffcc33;fill-opacity:1"
   sodipodi:insensitive="true">
	<g
   id="g1"
   style="fill:#ffcc33;fill-opacity:1">
		<path
   d="M 408.238,178.635 474.892,113.529 408.238,48.423 H 270.666 V 0 h -77.207 v 48.423 h -53.644 v 130.212 h 53.644 V 206.13 H 84.07 l -66.654,65.106 66.654,65.111 h 109.389 v 155.962 h 77.207 V 336.346 h 81.827 V 206.13 H 270.666 V 178.635 Z M 213.151,19.692 h 37.822 v 28.731 h -37.822 z m 37.823,452.923 H 213.152 V 336.346 h 37.822 z m 81.827,-246.793 v 90.832 H 92.089 l -46.49,-45.418 46.49,-45.413 H 332.801 Z M 213.151,206.13 v -27.495 h 37.822 V 206.13 Z M 159.507,158.942 V 68.115 h 240.712 l 46.49,45.413 -46.49,45.413 H 159.507 Z"
   id="path1"
   style="fill:#ffcc33;fill-opacity:1" />
	</g>
</g>
</svg>
